<?xml version="1.0" encoding="UTF-8" ?>
<!DOCTYPE svg PUBLIC "-//W3C//DTD SVG 1.1//EN" "http://www.w3.org/Graphics/SVG/1.1/DTD/svg11.dtd">
<svg width="700pt" height="541pt" viewBox="0 0 700 541" version="1.1" xmlns="http://www.w3.org/2000/svg">
<g id="#ffffffff">
<path fill="#ffffff" opacity="1.00" d=" M 0.00 0.00 L 700.00 0.00 L 700.00 541.00 L 0.00 541.00 L 0.00 0.00 M 283.42 5.59 C 250.99 15.24 218.14 23.69 186.46 35.69 C 172.38 41.01 158.58 47.12 145.42 54.44 C 128.96 63.69 113.47 75.05 101.06 89.36 C 101.55 91.36 103.52 92.68 104.69 94.33 C 132.68 127.37 151.19 166.93 175.87 202.29 C 166.05 207.43 155.57 211.21 145.21 215.12 C 128.01 221.22 110.78 227.36 94.33 235.31 C 93.29 235.86 92.13 236.29 91.28 237.15 C 89.94 244.98 92.68 252.84 96.20 259.75 C 96.80 260.76 97.41 262.74 99.02 261.93 C 126.93 256.60 151.58 241.33 178.94 234.20 C 175.03 259.02 165.63 282.79 163.48 307.94 C 162.08 326.46 166.15 345.18 174.17 361.87 C 178.62 371.42 185.72 379.46 193.56 386.39 C 206.67 397.77 222.07 405.98 236.60 415.34 C 244.79 420.59 252.78 426.43 258.97 434.01 C 263.57 439.68 266.85 446.67 267.15 454.04 C 265.84 466.76 256.24 476.35 252.25 488.15 C 248.05 499.55 247.69 511.98 243.27 523.32 C 241.73 527.33 239.17 531.13 235.38 533.31 C 231.67 535.47 227.19 534.70 223.12 534.44 C 229.32 535.79 235.70 535.39 241.97 536.11 C 249.31 536.52 256.66 536.61 264.00 536.83 C 269.98 537.44 275.99 537.42 282.00 537.50 C 304.00 537.73 326.00 537.61 348.00 537.20 C 360.31 536.52 372.66 536.59 384.99 536.23 C 402.97 535.35 421.00 535.51 439.00 534.89 C 455.33 534.70 471.66 534.94 487.99 534.82 C 512.03 534.72 536.20 535.64 560.08 532.30 C 557.97 531.07 555.45 531.00 553.11 530.55 C 538.82 528.25 524.34 529.85 510.02 530.96 C 503.68 531.58 497.29 531.59 490.96 532.23 C 479.21 532.94 467.39 532.73 455.70 531.41 C 455.14 516.01 452.07 500.75 446.75 486.30 C 439.20 464.52 426.69 444.64 421.01 422.20 C 428.45 422.41 435.65 425.12 441.82 429.20 C 449.37 433.99 455.88 440.82 464.73 443.23 C 476.20 446.46 488.88 441.29 496.20 432.19 C 510.22 415.36 515.79 393.35 529.20 376.11 C 533.54 370.75 538.75 365.88 545.09 362.99 C 547.45 364.99 548.63 368.41 551.83 369.37 C 557.51 371.34 563.42 372.64 568.95 375.04 C 567.24 371.85 566.16 368.34 566.02 364.72 C 568.94 364.56 571.87 364.92 574.80 364.75 C 576.10 363.01 577.11 361.06 577.96 359.06 C 571.91 355.41 565.40 352.27 558.44 350.83 C 551.78 349.56 544.59 350.27 538.65 353.67 C 532.62 357.09 527.89 362.34 523.75 367.81 C 514.51 380.37 508.34 394.81 499.80 407.82 C 493.77 417.17 486.21 426.35 475.64 430.66 C 474.42 431.38 473.23 430.35 472.18 429.87 C 455.31 420.21 435.18 418.48 418.40 408.63 C 411.33 404.77 405.81 398.44 402.27 391.27 C 402.86 390.53 403.49 389.83 404.17 389.16 C 420.32 373.05 432.94 353.11 439.10 331.05 C 444.82 312.07 446.44 292.12 446.18 272.38 C 450.87 274.47 455.70 276.91 460.99 276.62 C 472.36 276.25 482.79 270.94 492.63 265.70 C 493.06 256.69 494.23 247.26 491.47 238.52 C 487.71 236.33 482.57 235.06 478.70 237.67 C 476.62 238.97 476.29 241.76 476.64 243.98 C 477.67 248.56 481.17 251.97 483.12 256.13 C 475.06 261.04 464.62 262.03 455.86 258.40 C 450.15 256.08 444.47 253.28 439.83 249.19 C 439.03 228.42 431.04 207.60 416.12 192.89 C 404.48 180.84 389.50 172.95 375.02 164.90 L 375.05 164.25 C 391.67 155.23 410.79 153.21 428.89 148.74 C 438.96 146.18 449.22 143.00 457.58 136.61 C 465.44 130.74 470.44 121.31 470.98 111.52 C 465.02 111.16 459.06 111.91 453.15 112.61 C 434.20 115.12 415.94 121.16 398.19 128.06 C 390.84 130.81 383.38 133.24 375.98 135.83 C 371.23 136.87 366.65 138.51 361.90 139.50 C 359.45 137.03 357.67 134.01 355.89 131.06 C 337.02 99.91 326.06 64.76 307.53 33.43 C 301.77 23.52 294.92 14.24 287.15 5.80 C 286.25 4.44 284.63 5.36 283.42 5.59 Z" />
<path fill="#ffffff" opacity="1.00" d=" M 348.52 178.79 C 355.30 177.95 362.16 178.01 368.97 178.31 C 382.02 179.22 394.99 183.60 405.38 191.65 C 414.94 199.10 421.77 209.68 425.56 221.12 C 428.60 230.33 430.26 239.98 430.83 249.65 C 419.90 249.45 408.28 249.87 398.68 255.74 C 391.36 259.87 386.69 267.17 383.20 274.58 C 375.45 271.49 367.51 268.06 359.00 268.12 C 346.49 267.79 334.96 274.77 326.80 283.80 C 314.51 297.49 307.54 314.88 301.49 332.00 C 301.26 331.87 300.81 331.60 300.59 331.47 C 297.83 327.34 297.73 321.54 293.69 318.30 C 287.70 317.64 283.27 322.73 279.98 327.03 C 280.91 328.97 282.61 330.40 284.03 331.98 C 287.81 335.94 292.34 339.79 297.93 340.60 C 304.25 341.34 309.95 337.46 314.12 333.10 C 324.86 321.88 331.24 307.23 342.21 296.19 C 344.62 293.88 347.20 291.55 350.39 290.39 C 356.10 290.46 361.31 293.45 366.98 293.98 C 378.71 295.31 390.39 292.39 401.74 289.79 C 404.17 286.13 405.81 282.00 408.33 278.39 C 411.73 273.27 416.59 268.44 422.90 267.43 C 427.39 266.86 431.95 267.09 436.44 267.48 C 438.12 276.86 437.63 286.50 436.92 295.96 C 435.05 323.08 424.59 349.94 405.92 369.93 C 389.61 387.17 367.85 398.65 344.94 404.34 C 323.51 409.90 301.09 410.32 279.15 408.31 C 268.79 407.12 258.35 405.39 248.71 401.26 C 237.00 396.32 226.58 388.94 216.00 382.02 C 214.19 380.78 212.19 379.77 210.67 378.17 C 211.46 373.47 212.68 368.80 212.70 364.00 C 213.16 336.77 204.12 310.39 204.31 283.18 C 219.37 291.53 230.88 305.16 246.61 312.45 C 258.24 318.23 272.53 317.96 284.06 312.07 C 291.27 308.59 296.68 302.01 299.55 294.62 C 302.94 286.19 303.04 276.89 302.53 267.95 C 301.03 250.50 294.83 233.75 286.50 218.46 C 284.94 216.21 283.85 212.80 280.66 212.60 C 281.13 217.59 282.84 222.45 282.50 227.50 C 275.70 227.86 268.86 227.19 262.06 227.76 C 248.75 229.01 235.92 235.00 226.52 244.52 C 216.70 254.32 209.88 266.55 201.44 277.46 C 199.72 279.73 197.74 281.78 196.09 284.10 C 195.94 285.43 196.49 286.71 196.79 287.98 C 203.40 310.37 204.37 333.85 206.43 356.96 C 206.76 362.18 207.58 367.37 207.87 372.61 C 195.82 360.77 188.48 344.79 184.87 328.44 C 182.00 315.21 181.48 301.47 183.36 288.06 C 184.84 276.96 187.78 265.95 192.98 255.98 C 196.65 248.75 201.09 241.61 207.70 236.71 C 218.68 228.46 231.16 222.55 243.41 216.47 C 266.67 205.69 290.51 196.24 314.58 187.47 C 325.56 183.45 336.90 180.25 348.52 178.79 M 317.34 194.28 C 315.06 195.68 312.79 197.14 310.82 198.97 C 310.66 201.83 311.28 204.76 312.82 207.20 C 318.19 216.64 329.64 220.64 334.58 230.42 C 337.83 236.41 336.57 243.39 336.36 249.87 C 343.25 255.42 350.41 260.95 358.75 264.15 C 363.28 265.95 368.24 265.95 373.04 265.79 C 379.92 265.53 386.82 262.69 391.45 257.50 C 396.02 252.42 398.46 245.76 399.46 239.08 C 401.58 226.95 400.16 214.56 402.02 202.40 C 386.66 203.51 371.46 206.70 356.02 206.86 C 345.75 207.17 334.90 206.43 325.84 201.13 C 322.67 199.37 320.38 196.53 317.94 193.93 L 317.34 194.28 M 408.22 290.34 C 409.07 295.92 409.92 301.61 412.09 306.87 C 413.81 310.72 416.78 314.67 421.09 315.64 C 421.70 307.09 420.48 298.42 417.74 290.31 C 414.57 290.07 411.38 290.17 408.22 290.34 M 356.39 303.56 C 353.81 304.50 351.14 305.24 348.68 306.48 C 348.72 314.58 346.78 323.55 351.22 330.89 C 355.62 331.90 360.23 331.33 364.72 331.31 C 363.30 326.05 360.82 321.15 359.38 315.90 C 357.90 311.29 360.02 306.65 360.78 302.12 C 359.30 302.56 357.84 303.04 356.39 303.56 M 380.42 304.61 C 377.54 305.43 374.54 306.27 372.10 308.09 C 369.17 310.53 368.94 314.63 369.05 318.15 C 372.36 316.45 375.11 313.47 378.95 312.96 C 384.83 312.11 391.00 312.97 396.66 310.78 C 399.01 309.79 401.52 308.40 402.67 306.02 C 395.69 303.03 387.73 302.77 380.42 304.61 M 381.56 315.87 C 379.22 316.42 376.58 317.06 375.11 319.14 C 373.31 321.64 373.15 324.86 373.16 327.84 C 377.66 328.04 382.36 327.61 386.40 325.45 C 390.70 323.35 393.57 319.31 396.06 315.37 C 391.23 315.18 386.33 314.97 381.56 315.87 Z" />
<path fill="#ffffff" opacity="1.00" d=" M 366.18 217.15 C 372.22 216.49 378.34 217.02 384.28 218.18 C 375.01 224.06 363.22 223.38 353.63 228.61 C 349.69 230.30 347.51 234.13 344.94 237.31 C 344.05 234.45 342.81 231.40 343.51 228.37 C 344.64 225.48 347.02 223.24 349.64 221.67 C 354.66 218.77 360.47 217.66 366.18 217.15 Z" />
<path fill="#ffffff" opacity="1.00" d=" M 368.35 227.45 C 368.77 227.40 369.61 227.30 370.03 227.25 C 376.22 228.23 380.09 233.72 385.08 236.94 C 387.34 233.97 388.43 230.36 389.82 226.96 C 393.00 231.50 394.93 237.81 391.87 242.92 C 385.16 254.32 370.64 259.40 357.97 257.03 C 353.10 256.22 348.39 253.65 345.58 249.52 C 344.68 245.78 346.04 241.50 348.91 238.88 C 352.46 235.38 357.50 234.21 361.67 231.65 C 363.95 230.35 365.91 228.49 368.35 227.45 Z" />
<path fill="#ffffff" opacity="1.00" d=" M 257.62 233.50 C 264.03 233.01 271.01 232.87 276.77 236.21 C 277.39 237.72 276.57 239.38 276.38 240.92 C 272.34 258.80 261.43 273.88 252.48 289.54 C 249.92 293.78 247.90 298.31 245.59 302.68 C 243.51 303.36 240.60 304.00 239.07 301.95 C 236.01 298.76 232.89 295.64 229.50 292.81 C 236.91 276.11 246.81 260.62 253.73 243.69 C 255.19 240.35 256.20 236.85 257.62 233.50 Z" />
<path fill="#ffffff" opacity="1.00" d=" M 242.35 240.51 C 243.17 240.22 244.83 239.64 245.66 239.35 C 243.75 250.73 237.28 260.57 231.07 270.03 C 229.19 272.71 227.72 275.67 225.57 278.15 C 224.59 274.20 223.21 270.20 223.49 266.08 C 224.81 255.10 232.05 244.80 242.35 240.51 Z" />
<path fill="#ffffff" opacity="1.00" d=" M 285.37 243.44 L 286.20 242.74 C 285.09 246.54 283.35 250.10 281.76 253.71 C 276.65 265.03 271.63 276.45 265.12 287.06 C 260.53 294.51 254.94 301.48 247.96 306.83 C 249.17 303.56 250.84 300.49 252.42 297.39 C 259.01 284.70 264.82 271.57 272.46 259.45 C 276.19 253.69 280.29 248.09 285.37 243.44 Z" />
<path fill="#ffffff" opacity="1.00" d=" M 289.36 248.90 C 291.96 250.69 293.14 253.87 294.27 256.70 C 297.56 266.40 294.43 276.86 289.65 285.49 C 283.12 297.67 271.50 307.99 257.40 309.76 C 262.82 292.81 273.30 278.19 281.78 262.72 C 284.39 258.16 286.68 253.42 289.36 248.90 Z" />
<path fill="#ffffff" opacity="1.00" d=" M 295.51 278.38 L 296.06 277.58 C 300.17 287.15 292.57 298.79 282.68 300.47 C 285.11 292.16 291.09 285.65 295.51 278.38 Z" />
<path fill="#ffffff" opacity="1.00" d=" M 387.94 399.80 C 389.53 398.98 391.40 399.10 393.08 399.55 C 395.17 401.33 396.45 403.80 398.05 405.99 C 399.36 407.81 401.20 409.17 402.71 410.82 C 401.49 416.80 396.93 421.33 395.27 427.15 C 400.56 432.38 407.37 436.16 411.47 442.55 C 414.23 446.65 413.38 451.93 412.29 456.44 L 411.76 456.74 C 403.84 454.55 397.50 448.40 393.50 441.40 C 387.64 430.61 386.21 418.11 386.17 406.02 C 386.17 403.82 386.54 401.57 387.94 399.80 Z" />
<path fill="#ffffff" opacity="1.00" d=" M 377.57 402.53 L 378.14 401.91 C 379.44 403.28 380.49 404.97 380.64 406.90 C 380.94 411.27 380.06 415.61 379.54 419.93 C 375.07 416.23 371.14 411.94 366.84 408.06 C 370.54 406.43 375.36 406.45 377.57 402.53 Z" />
<path fill="#ffffff" opacity="1.00" d=" M 354.88 415.01 C 357.66 415.47 361.12 415.42 362.90 417.99 C 365.11 420.86 367.71 423.38 370.72 425.41 C 370.87 428.50 369.25 431.41 368.47 434.37 C 367.26 437.60 367.19 441.06 367.13 444.48 C 363.60 443.73 359.10 443.34 357.21 439.76 C 353.10 432.18 354.76 423.24 354.88 415.01 Z" />
<path fill="#ffffff" opacity="1.00" d=" M 291.68 415.68 C 299.47 415.48 307.28 415.51 315.07 415.63 C 318.02 418.53 320.12 422.28 321.60 426.13 C 326.74 441.21 324.57 457.62 329.28 472.80 C 330.27 476.17 331.94 479.27 333.38 482.46 C 331.40 482.36 329.12 482.91 327.42 481.61 C 322.50 477.90 318.95 472.73 314.26 468.76 C 312.98 467.60 311.53 466.59 310.52 465.17 C 311.31 457.76 318.30 452.24 317.58 444.53 C 313.10 442.82 308.42 441.35 304.53 438.43 C 300.75 435.55 297.29 432.04 295.32 427.67 C 293.57 423.86 292.49 419.78 291.68 415.68 Z" />
<path fill="#ffffff" opacity="1.00" d=" M 322.54 415.76 C 327.25 415.49 331.99 415.50 336.71 415.67 C 336.68 419.34 336.98 423.54 334.56 426.59 C 332.72 428.15 330.17 428.54 327.92 429.25 C 325.27 425.26 324.15 420.29 322.54 415.76 Z" />
<path fill="#ffffff" opacity="1.00" d=" M 264.39 419.63 C 272.87 416.90 281.71 420.66 288.79 425.25 C 290.20 426.33 292.22 427.17 292.60 429.11 C 293.90 433.90 293.55 439.01 295.19 443.72 C 296.08 446.23 297.65 448.74 300.23 449.77 C 303.75 451.33 307.64 450.27 311.31 450.06 C 309.57 455.10 308.25 460.58 309.64 465.88 C 311.99 474.58 317.62 481.87 323.60 488.41 C 329.24 494.43 335.00 500.33 340.66 506.34 C 345.92 511.89 350.81 517.96 354.00 524.96 C 355.17 527.27 354.91 529.95 354.89 532.46 C 349.64 532.76 344.42 531.90 339.22 531.32 C 339.19 531.08 339.12 530.60 339.09 530.36 C 341.08 527.79 343.49 525.57 345.40 522.93 C 340.59 523.23 335.85 524.55 331.01 524.20 C 323.52 523.63 316.35 521.23 308.98 519.97 C 303.40 519.00 297.72 519.46 292.10 519.27 C 294.51 500.74 292.75 481.51 285.60 464.15 C 279.44 448.82 269.39 435.59 260.43 421.86 C 261.23 420.49 263.02 420.21 264.39 419.63 Z" />
<path fill="#ffffff" opacity="1.00" d=" M 379.41 428.40 L 379.74 427.78 C 387.07 440.28 395.29 452.29 401.50 465.41 C 405.59 473.95 408.31 483.61 406.74 493.12 C 406.01 498.54 402.72 503.21 399.01 507.05 C 398.42 501.87 398.04 496.63 396.59 491.59 C 392.73 477.09 384.08 464.43 380.06 449.99 C 377.94 443.01 378.02 435.48 379.41 428.40 Z" />
<path fill="#ffffff" opacity="1.00" d=" M 336.14 440.04 C 339.06 440.82 341.93 441.95 344.48 443.60 C 347.44 445.85 348.71 449.62 349.48 453.12 C 351.93 466.67 347.83 480.41 349.92 493.98 C 350.39 496.92 350.95 499.94 352.42 502.58 C 354.03 505.47 356.51 507.72 358.48 510.37 C 353.41 510.08 348.79 507.28 345.59 503.44 C 340.58 497.44 337.81 489.97 335.67 482.55 C 331.85 468.75 331.10 453.63 336.14 440.04 Z" />
<path fill="#ffffff" opacity="1.00" d=" M 419.52 450.36 L 420.08 449.63 L 420.72 449.69 C 434.60 475.07 444.35 502.73 449.37 531.22 L 449.08 531.77 C 435.42 531.82 421.75 531.91 408.09 531.73 C 409.98 526.75 412.11 521.77 412.57 516.40 C 413.56 500.28 411.78 484.14 412.68 468.02 C 412.94 461.56 415.86 455.56 419.52 450.36 Z" />
<path fill="#ffffff" opacity="1.00" d=" M 367.22 459.14 C 376.18 460.63 382.17 468.69 385.49 476.57 C 390.83 489.22 391.98 505.15 383.54 516.75 C 376.07 514.20 370.64 507.44 367.86 500.24 C 363.07 487.12 363.37 472.46 367.22 459.14 Z" />
<path fill="#ffffff" opacity="1.00" d=" M 270.35 475.17 L 270.91 474.24 C 274.40 477.33 277.58 481.16 278.41 485.90 C 281.02 497.72 280.09 509.93 280.09 521.94 C 277.47 523.74 274.64 525.20 272.02 527.01 C 268.26 529.36 264.49 532.30 259.90 532.58 C 256.99 532.73 254.07 532.72 251.17 532.53 C 251.64 529.28 252.65 526.14 253.41 522.96 C 257.53 506.56 262.08 490.03 270.35 475.17 Z" />
<path fill="#ffffff" opacity="1.00" d=" M 399.42 509.27 L 400.08 508.66 C 401.95 509.42 403.78 510.34 405.40 511.56 C 407.07 518.36 403.97 525.01 402.17 531.44 C 400.31 532.57 398.07 532.32 396.00 532.38 C 392.54 532.34 389.04 532.43 385.65 531.65 C 385.58 527.74 385.27 523.22 388.12 520.11 C 391.64 516.25 395.90 513.14 399.42 509.27 Z" />
<path fill="#ffffff" opacity="1.00" d=" M 364.45 521.64 C 370.33 520.46 376.91 521.51 381.58 525.45 C 383.52 527.19 383.55 530.03 383.77 532.44 C 375.93 532.94 367.40 532.81 360.66 528.22 C 359.39 527.39 357.42 526.04 358.28 524.27 C 360.01 522.80 362.28 522.18 364.45 521.64 Z" />
</g>
<g id="#010101ff">
<path fill="#010101" opacity="1.00" d=" M 283.42 5.59 C 284.63 5.36 286.25 4.44 287.15 5.80 C 294.92 14.24 301.77 23.52 307.53 33.43 C 326.06 64.76 337.02 99.91 355.89 131.06 C 357.67 134.01 359.45 137.03 361.90 139.50 C 366.65 138.51 371.23 136.87 375.98 135.83 C 383.38 133.24 390.84 130.81 398.19 128.06 C 415.94 121.16 434.20 115.12 453.15 112.61 C 459.06 111.91 465.02 111.16 470.98 111.52 C 470.44 121.31 465.44 130.74 457.58 136.61 C 449.22 143.00 438.96 146.18 428.89 148.74 C 410.79 153.21 391.67 155.23 375.05 164.25 L 375.02 164.90 C 389.50 172.95 404.48 180.84 416.12 192.89 C 431.04 207.60 439.03 228.42 439.83 249.19 C 444.47 253.28 450.15 256.08 455.86 258.40 C 464.62 262.03 475.06 261.04 483.12 256.13 C 481.17 251.97 477.67 248.56 476.64 243.98 C 476.29 241.76 476.62 238.97 478.70 237.67 C 482.57 235.06 487.71 236.33 491.47 238.52 C 494.23 247.26 493.06 256.69 492.63 265.70 C 482.79 270.94 472.36 276.25 460.99 276.62 C 455.70 276.91 450.87 274.47 446.18 272.38 C 446.44 292.12 444.82 312.07 439.10 331.05 C 432.94 353.11 420.32 373.05 404.17 389.16 C 403.49 389.83 402.86 390.53 402.27 391.27 C 405.81 398.44 411.33 404.77 418.40 408.63 C 435.18 418.48 455.31 420.21 472.18 429.87 C 473.23 430.35 474.42 431.38 475.64 430.66 C 486.21 426.35 493.77 417.17 499.80 407.82 C 508.34 394.81 514.51 380.37 523.75 367.81 C 527.89 362.34 532.62 357.09 538.65 353.67 C 544.59 350.27 551.78 349.56 558.44 350.83 C 565.40 352.27 571.91 355.41 577.96 359.06 C 577.11 361.06 576.10 363.01 574.80 364.75 C 571.87 364.92 568.94 364.56 566.02 364.72 C 566.16 368.34 567.24 371.85 568.95 375.04 C 563.42 372.64 557.51 371.34 551.83 369.37 C 548.63 368.41 547.45 364.99 545.09 362.99 C 538.75 365.88 533.54 370.75 529.20 376.11 C 515.79 393.35 510.22 415.36 496.20 432.19 C 488.88 441.29 476.20 446.46 464.73 443.23 C 455.88 440.82 449.37 433.99 441.82 429.20 C 435.65 425.12 428.45 422.41 421.01 422.20 C 426.69 444.64 439.20 464.52 446.75 486.30 C 452.07 500.75 455.14 516.01 455.70 531.41 C 467.39 532.73 479.21 532.94 490.96 532.23 C 497.29 531.59 503.68 531.58 510.02 530.96 C 524.34 529.85 538.82 528.25 553.11 530.55 C 555.45 531.00 557.97 531.07 560.08 532.30 C 536.20 535.64 512.03 534.72 487.99 534.82 C 471.66 534.94 455.33 534.70 439.00 534.89 C 421.00 535.51 402.97 535.35 384.99 536.23 C 372.66 536.59 360.31 536.52 348.00 537.20 C 326.00 537.61 304.00 537.73 282.00 537.50 C 275.99 537.42 269.98 537.44 264.00 536.83 C 256.66 536.61 249.31 536.52 241.97 536.11 C 235.70 535.39 229.32 535.79 223.12 534.44 C 227.19 534.70 231.67 535.47 235.38 533.31 C 239.17 531.13 241.73 527.33 243.27 523.32 C 247.69 511.98 248.05 499.55 252.25 488.15 C 256.24 476.35 265.84 466.76 267.15 454.04 C 266.85 446.67 263.57 439.68 258.97 434.01 C 252.78 426.43 244.79 420.59 236.60 415.34 C 222.07 405.98 206.67 397.77 193.56 386.39 C 185.72 379.46 178.62 371.42 174.17 361.87 C 166.15 345.18 162.08 326.46 163.48 307.94 C 165.63 282.79 175.03 259.02 178.94 234.20 C 151.58 241.33 126.93 256.60 99.02 261.93 C 97.41 262.74 96.80 260.76 96.20 259.75 C 92.68 252.84 89.94 244.98 91.28 237.15 C 92.13 236.29 93.29 235.86 94.33 235.31 C 110.78 227.36 128.01 221.22 145.21 215.12 C 155.57 211.21 166.05 207.43 175.87 202.29 C 151.19 166.93 132.68 127.37 104.69 94.33 C 103.52 92.68 101.55 91.36 101.06 89.36 C 113.47 75.05 128.96 63.69 145.42 54.44 C 158.58 47.12 172.38 41.01 186.46 35.69 C 218.14 23.69 250.99 15.24 283.42 5.59 M 348.52 178.79 C 336.90 180.25 325.56 183.45 314.58 187.47 C 290.51 196.24 266.67 205.69 243.41 216.47 C 231.16 222.55 218.68 228.46 207.70 236.71 C 201.09 241.61 196.65 248.75 192.98 255.98 C 187.78 265.95 184.84 276.96 183.36 288.06 C 181.48 301.47 182.00 315.21 184.87 328.44 C 188.48 344.79 195.82 360.77 207.87 372.61 C 207.58 367.37 206.76 362.18 206.43 356.96 C 204.37 333.85 203.40 310.37 196.79 287.98 C 196.49 286.71 195.94 285.43 196.09 284.10 C 197.74 281.78 199.72 279.73 201.44 277.46 C 209.88 266.55 216.70 254.32 226.52 244.52 C 235.92 235.00 248.75 229.01 262.06 227.76 C 268.86 227.19 275.70 227.86 282.50 227.50 C 282.84 222.45 281.13 217.59 280.66 212.60 C 283.85 212.80 284.94 216.21 286.50 218.46 C 294.83 233.75 301.03 250.50 302.53 267.95 C 303.04 276.89 302.94 286.19 299.55 294.62 C 296.68 302.01 291.27 308.59 284.06 312.07 C 272.53 317.96 258.24 318.23 246.61 312.45 C 230.88 305.16 219.37 291.53 204.31 283.18 C 204.12 310.39 213.16 336.77 212.70 364.00 C 212.68 368.80 211.46 373.47 210.67 378.17 C 212.19 379.77 214.19 380.78 216.00 382.02 C 226.58 388.94 237.00 396.32 248.71 401.26 C 258.35 405.39 268.79 407.12 279.15 408.31 C 301.09 410.32 323.51 409.90 344.94 404.34 C 367.85 398.65 389.61 387.17 405.92 369.93 C 424.59 349.94 435.05 323.08 436.92 295.96 C 437.63 286.50 438.12 276.86 436.44 267.48 C 431.95 267.09 427.39 266.86 422.90 267.43 C 416.59 268.44 411.73 273.27 408.33 278.39 C 405.81 282.00 404.17 286.13 401.74 289.79 C 390.39 292.39 378.71 295.31 366.98 293.98 C 361.31 293.45 356.10 290.46 350.39 290.39 C 347.20 291.55 344.62 293.88 342.21 296.19 C 331.24 307.23 324.86 321.88 314.12 333.10 C 309.95 337.46 304.25 341.34 297.93 340.60 C 292.34 339.79 287.81 335.94 284.03 331.98 C 282.61 330.40 280.91 328.97 279.98 327.03 C 283.27 322.73 287.70 317.64 293.69 318.30 C 297.73 321.54 297.83 327.34 300.59 331.47 C 300.81 331.60 301.26 331.87 301.49 332.00 C 307.54 314.88 314.51 297.49 326.80 283.80 C 334.96 274.77 346.49 267.79 359.00 268.12 C 367.51 268.06 375.45 271.49 383.20 274.58 C 386.69 267.17 391.36 259.87 398.68 255.74 C 408.28 249.87 419.90 249.45 430.83 249.65 C 430.26 239.98 428.60 230.33 425.56 221.12 C 421.77 209.68 414.94 199.10 405.38 191.65 C 394.99 183.60 382.02 179.22 368.97 178.31 C 362.16 178.01 355.30 177.95 348.52 178.79 M 257.62 233.50 C 256.20 236.85 255.19 240.35 253.73 243.69 C 246.81 260.62 236.91 276.11 229.50 292.81 C 232.89 295.64 236.01 298.76 239.07 301.95 C 240.60 304.00 243.51 303.36 245.59 302.68 C 247.90 298.31 249.92 293.78 252.48 289.54 C 261.43 273.88 272.34 258.80 276.38 240.92 C 276.57 239.38 277.39 237.72 276.77 236.21 C 271.01 232.87 264.03 233.01 257.62 233.50 M 242.35 240.51 C 232.05 244.80 224.81 255.10 223.49 266.08 C 223.21 270.20 224.59 274.20 225.57 278.15 C 227.72 275.67 229.19 272.71 231.07 270.03 C 237.28 260.57 243.75 250.73 245.66 239.35 C 244.83 239.64 243.17 240.22 242.35 240.51 M 285.37 243.44 C 280.29 248.09 276.19 253.69 272.46 259.45 C 264.82 271.57 259.01 284.70 252.42 297.39 C 250.84 300.49 249.17 303.56 247.96 306.83 C 254.94 301.48 260.53 294.51 265.12 287.06 C 271.63 276.45 276.65 265.03 281.76 253.71 C 283.35 250.10 285.09 246.54 286.20 242.74 L 285.37 243.44 M 289.36 248.90 C 286.68 253.42 284.39 258.16 281.78 262.72 C 273.30 278.19 262.82 292.81 257.40 309.76 C 271.50 307.99 283.12 297.67 289.65 285.49 C 294.43 276.86 297.56 266.40 294.27 256.70 C 293.14 253.87 291.96 250.69 289.36 248.90 M 295.51 278.38 C 291.09 285.65 285.11 292.16 282.68 300.47 C 292.57 298.79 300.17 287.15 296.06 277.58 L 295.51 278.38 M 387.94 399.80 C 386.54 401.57 386.17 403.82 386.17 406.02 C 386.21 418.11 387.64 430.61 393.50 441.40 C 397.50 448.40 403.84 454.55 411.76 456.74 L 412.29 456.44 C 413.38 451.93 414.23 446.65 411.47 442.55 C 407.37 436.16 400.56 432.38 395.27 427.15 C 396.93 421.33 401.49 416.80 402.71 410.82 C 401.20 409.17 399.36 407.81 398.05 405.99 C 396.45 403.80 395.17 401.33 393.08 399.55 C 391.40 399.10 389.53 398.98 387.94 399.80 M 377.57 402.53 C 375.36 406.45 370.54 406.43 366.84 408.06 C 371.14 411.94 375.07 416.23 379.54 419.93 C 380.06 415.61 380.94 411.27 380.64 406.90 C 380.49 404.97 379.44 403.28 378.14 401.91 L 377.57 402.53 M 354.88 415.01 C 354.76 423.24 353.10 432.18 357.21 439.76 C 359.10 443.34 363.60 443.73 367.13 444.48 C 367.19 441.06 367.26 437.60 368.47 434.37 C 369.25 431.41 370.87 428.50 370.72 425.41 C 367.71 423.38 365.11 420.86 362.90 417.99 C 361.12 415.42 357.66 415.47 354.88 415.01 M 291.68 415.68 C 292.49 419.78 293.57 423.86 295.32 427.67 C 297.29 432.04 300.75 435.55 304.53 438.43 C 308.42 441.35 313.10 442.82 317.58 444.53 C 318.30 452.24 311.31 457.76 310.52 465.17 C 311.53 466.59 312.98 467.60 314.26 468.76 C 318.95 472.73 322.50 477.90 327.42 481.61 C 329.12 482.91 331.40 482.36 333.38 482.46 C 331.94 479.27 330.27 476.17 329.28 472.80 C 324.57 457.62 326.74 441.21 321.60 426.13 C 320.12 422.28 318.02 418.53 315.07 415.63 C 307.28 415.51 299.47 415.48 291.68 415.68 M 322.54 415.76 C 324.15 420.29 325.27 425.26 327.92 429.25 C 330.17 428.54 332.72 428.15 334.56 426.59 C 336.98 423.54 336.68 419.34 336.71 415.67 C 331.99 415.50 327.25 415.49 322.54 415.76 M 264.39 419.63 C 263.02 420.21 261.23 420.49 260.43 421.86 C 269.39 435.59 279.44 448.82 285.60 464.15 C 292.75 481.51 294.51 500.74 292.10 519.27 C 297.72 519.46 303.40 519.00 308.98 519.97 C 316.35 521.23 323.52 523.63 331.01 524.20 C 335.85 524.55 340.59 523.23 345.40 522.93 C 343.49 525.57 341.08 527.79 339.09 530.36 C 339.12 530.60 339.19 531.08 339.22 531.32 C 344.42 531.90 349.64 532.76 354.89 532.46 C 354.91 529.95 355.17 527.27 354.00 524.96 C 350.81 517.96 345.92 511.89 340.66 506.34 C 335.00 500.33 329.24 494.43 323.60 488.41 C 317.62 481.87 311.99 474.58 309.64 465.88 C 308.25 460.58 309.57 455.10 311.31 450.06 C 307.64 450.27 303.75 451.33 300.23 449.77 C 297.65 448.74 296.08 446.23 295.19 443.72 C 293.55 439.01 293.90 433.90 292.60 429.11 C 292.22 427.17 290.20 426.33 288.79 425.25 C 281.71 420.66 272.87 416.90 264.39 419.63 M 379.41 428.40 C 378.02 435.48 377.94 443.01 380.06 449.99 C 384.08 464.43 392.73 477.09 396.59 491.59 C 398.04 496.63 398.42 501.87 399.01 507.05 C 402.72 503.21 406.01 498.54 406.74 493.12 C 408.31 483.61 405.59 473.95 401.50 465.41 C 395.29 452.29 387.07 440.28 379.74 427.78 L 379.41 428.40 M 336.14 440.04 C 331.10 453.63 331.85 468.75 335.67 482.55 C 337.81 489.97 340.58 497.44 345.59 503.44 C 348.79 507.28 353.41 510.08 358.48 510.37 C 356.51 507.72 354.03 505.47 352.42 502.58 C 350.95 499.94 350.39 496.92 349.92 493.98 C 347.83 480.41 351.93 466.67 349.48 453.12 C 348.71 449.62 347.44 445.85 344.48 443.60 C 341.93 441.95 339.06 440.82 336.14 440.04 M 419.52 450.36 C 415.86 455.56 412.94 461.56 412.68 468.02 C 411.78 484.14 413.56 500.28 412.57 516.40 C 412.11 521.77 409.98 526.75 408.09 531.73 C 421.75 531.91 435.42 531.82 449.08 531.77 L 449.37 531.22 C 444.35 502.73 434.60 475.07 420.72 449.69 L 420.08 449.63 L 419.52 450.36 M 367.22 459.14 C 363.37 472.46 363.07 487.12 367.86 500.24 C 370.64 507.44 376.07 514.20 383.54 516.75 C 391.98 505.15 390.83 489.22 385.49 476.57 C 382.17 468.69 376.18 460.63 367.22 459.14 M 270.35 475.17 C 262.08 490.03 257.53 506.56 253.41 522.96 C 252.65 526.14 251.64 529.28 251.17 532.53 C 254.07 532.72 256.99 532.73 259.90 532.58 C 264.49 532.30 268.26 529.36 272.02 527.01 C 274.64 525.20 277.47 523.74 280.09 521.94 C 280.09 509.93 281.02 497.72 278.41 485.90 C 277.58 481.16 274.40 477.33 270.91 474.24 L 270.35 475.17 M 399.42 509.27 C 395.90 513.14 391.64 516.25 388.12 520.11 C 385.27 523.22 385.58 527.74 385.65 531.65 C 389.04 532.43 392.54 532.34 396.00 532.38 C 398.07 532.32 400.31 532.57 402.17 531.44 C 403.97 525.01 407.07 518.36 405.40 511.56 C 403.78 510.34 401.95 509.42 400.08 508.66 L 399.42 509.27 M 364.45 521.64 C 362.28 522.18 360.01 522.80 358.28 524.27 C 357.42 526.04 359.39 527.39 360.66 528.22 C 367.40 532.81 375.93 532.94 383.77 532.44 C 383.55 530.03 383.52 527.19 381.58 525.45 C 376.91 521.51 370.33 520.46 364.45 521.64 Z" />
<path fill="#010101" opacity="1.00" d=" M 317.34 194.28 L 317.94 193.93 C 320.38 196.53 322.67 199.37 325.84 201.13 C 334.90 206.43 345.75 207.17 356.02 206.86 C 371.46 206.70 386.66 203.51 402.02 202.40 C 400.16 214.56 401.58 226.95 399.46 239.08 C 398.46 245.76 396.02 252.42 391.45 257.50 C 386.82 262.69 379.92 265.53 373.04 265.79 C 368.24 265.95 363.28 265.95 358.75 264.15 C 350.41 260.95 343.25 255.42 336.36 249.87 C 336.57 243.39 337.83 236.41 334.58 230.42 C 329.64 220.64 318.19 216.64 312.82 207.20 C 311.28 204.76 310.66 201.83 310.82 198.97 C 312.79 197.14 315.06 195.68 317.34 194.28 M 366.18 217.15 C 360.47 217.66 354.66 218.77 349.64 221.67 C 347.02 223.24 344.64 225.48 343.51 228.37 C 342.81 231.40 344.05 234.45 344.94 237.31 C 347.51 234.13 349.69 230.30 353.63 228.61 C 363.22 223.38 375.01 224.06 384.28 218.18 C 378.34 217.02 372.22 216.49 366.18 217.15 M 368.35 227.45 C 365.91 228.49 363.95 230.35 361.67 231.65 C 357.50 234.21 352.46 235.38 348.91 238.88 C 346.04 241.50 344.68 245.78 345.58 249.52 C 348.39 253.65 353.10 256.22 357.97 257.03 C 370.64 259.40 385.16 254.32 391.87 242.92 C 394.93 237.81 393.00 231.50 389.82 226.96 C 388.43 230.36 387.34 233.97 385.08 236.94 C 380.09 233.72 376.22 228.23 370.03 227.25 C 369.61 227.30 368.77 227.40 368.35 227.45 Z" />
<path fill="#010101" opacity="1.00" d=" M 408.22 290.34 C 411.38 290.17 414.57 290.07 417.74 290.31 C 420.48 298.42 421.70 307.09 421.09 315.64 C 416.78 314.67 413.81 310.72 412.09 306.87 C 409.92 301.61 409.07 295.92 408.22 290.34 Z" />
<path fill="#010101" opacity="1.00" d=" M 356.39 303.56 C 357.84 303.04 359.30 302.56 360.78 302.12 C 360.02 306.65 357.90 311.29 359.38 315.90 C 360.82 321.15 363.30 326.05 364.72 331.31 C 360.23 331.33 355.62 331.90 351.22 330.89 C 346.78 323.55 348.72 314.58 348.68 306.48 C 351.14 305.24 353.81 304.50 356.39 303.56 Z" />
<path fill="#010101" opacity="1.00" d=" M 380.42 304.61 C 387.73 302.77 395.69 303.03 402.67 306.02 C 401.52 308.40 399.01 309.79 396.66 310.78 C 391.00 312.97 384.83 312.11 378.95 312.96 C 375.11 313.47 372.36 316.45 369.05 318.15 C 368.94 314.63 369.17 310.53 372.10 308.09 C 374.54 306.27 377.54 305.43 380.42 304.61 Z" />
<path fill="#010101" opacity="1.00" d=" M 381.56 315.87 C 386.33 314.97 391.23 315.18 396.06 315.37 C 393.57 319.31 390.70 323.35 386.40 325.45 C 382.36 327.61 377.66 328.04 373.16 327.84 C 373.15 324.86 373.31 321.64 375.11 319.14 C 376.58 317.06 379.22 316.42 381.56 315.87 Z" />
</g>
</svg>
