<?xml version="1.0" encoding="utf-8"?>
<svg viewBox="0 0 512 537" width="512" height="537" xmlns="http://www.w3.org/2000/svg">
  <g transform="matrix(1, 0, 0, 1, 0, 0)">
    <path d="M236.305,436.082c-7.956-5.375-12.705-14.304-12.705-23.889c0-5.184,1.389-10.261,4.018-14.686&#10;&#9;&#9;c2.479-4.172,1.107-9.562-3.065-12.041c-4.174-2.48-9.564-1.106-12.042,3.065c-4.243,7.139-6.485,15.321-6.485,23.662&#10;&#9;&#9;c0,15.43,7.642,29.803,20.441,38.45c1.508,1.018,3.218,1.507,4.91,1.507c2.821,0,5.59-1.355,7.289-3.869&#10;&#9;&#9;C241.383,444.259,240.325,438.797,236.305,436.082z" style="fill:#3B3A3C;"/>
    <path d="M164.268,434.695l43.89-105.682c1.615-4.576-0.785-9.593-5.361-11.209&#10;&#9;&#9;c-4.577-1.618-9.595,0.785-11.209,5.361l-45.318,109.728c-0.902,2.554-0.575,5.38,0.884,7.66l36.729,57.389&#10;&#9;&#9;c1.678,2.621,4.513,4.051,7.409,4.051c1.62,0,3.261-0.449,4.728-1.387c4.087-2.616,5.28-8.049,2.664-12.137L164.268,434.695z" style="fill:#3B3A3C;"/>
    <path d="M197.239,305.012c-0.269-0.736-0.635-1.406-1.064-2.018c4.452,0.503,8.633-2.465,9.565-6.938&#10;&#9;&#9;c0.99-4.75-2.057-9.404-6.808-10.395l-19.871-4.144c2.122-4.275,0.445-9.48-3.807-11.694L41.461,200.161L53.327,19.943&#10;&#9;&#9;c0.319-4.843-3.348-9.026-8.19-9.345c-4.832-0.337-9.025,3.348-9.345,8.189L23.548,204.728c-0.228,3.478,1.619,6.761,4.711,8.371&#10;&#9;&#9;l118.447,61.671l-79.884-16.659c-3.311-0.691-6.717,0.576-8.77,3.259L1.81,334.827c-2.95,3.853-2.218,9.367,1.635,12.318&#10;&#9;&#9;c1.593,1.221,3.471,1.81,5.335,1.81c2.641,0,5.253-1.186,6.982-3.444l52.881-69.07l115.365,24.058L68.895,342.632&#10;&#9;&#9;c-2.001,0.732-3.669,2.168-4.691,4.038l-40.555,74.223c-2.327,4.258-0.76,9.596,3.497,11.923c1.338,0.73,2.781,1.077,4.204,1.077&#10;&#9;&#9;c3.109,0,6.122-1.653,7.718-4.575l38.97-71.322l113.968-41.713C196.565,314.614,198.907,309.569,197.239,305.012z" style="fill:#3B3A3C;"/>
  </g>
  <g transform="matrix(1, 0, 0, 1, 0, 0)">
    <circle style="fill:#57555C;" cx="255.749" cy="172.02" r="134.862"/>
    <path d="M390.615,172.02c0-74.484-60.381-134.865-134.865-134.865S120.887,97.537,120.887,172.02&#10;&#9;&#9;c0,53.87,31.588,100.356,77.249,121.964c-7.396,10.95-11.782,24.388-11.829,38.493c-0.128,38.38,30.883,69.598,69.262,69.726&#10;&#9;&#9;c38.378,0.129,69.598-30.881,69.726-69.262c0.048-14.456-4.42-27.811-11.936-38.954&#10;&#9;&#9;C359.023,272.381,390.615,225.893,390.615,172.02z" style="fill:#57555C;"/>
  </g>
  <path d="M510.19,334.827l-56.241-73.457c-2.054-2.683-5.46-3.95-8.77-3.259l-78.847,16.442l119.133-62.028&#10;&#9;c3.09-1.61,4.938-4.893,4.709-8.371L477.931,18.214c-0.319-4.842-4.51-8.531-9.345-8.189c-4.842,0.317-8.509,4.502-8.19,9.345&#10;&#9;l11.866,180.218l-112.969,58.82c19.545-23.401,31.322-53.513,31.322-86.386c0-74.484-60.381-134.865-134.865-134.865&#10;&#9;c-21.743,0-42.28,5.153-60.469,14.293c10.818-2.796,22.162-4.286,33.854-4.286C303.619,47.164,364,107.545,364,182.028&#10;&#9;c0,41.293-18.562,78.243-47.793,102.98c0,0-5.006,4.079-9.985,7.672c-5.279,3.683-10.825,7.009-16.618,9.92&#10;&#9;c0.043-0.012,0.086-0.025,0.129-0.036c4.473,9.162,6.897,19.373,6.86,30.38c-0.111,33.385-23.752,61.182-55.163,67.771&#10;&#9;c4.564,0.959,9.291,1.475,14.138,1.49c9.19,0.03,17.963-1.741,26.004-4.955c0.047,0.086,0.087,0.175,0.137,0.259&#10;&#9;c2.629,4.424,4.018,9.502,4.018,14.686c0,9.585-4.749,18.514-12.705,23.889c-4.022,2.716-5.078,8.177-2.363,12.199&#10;&#9;c1.698,2.514,4.468,3.869,7.289,3.869c1.692,0,3.402-0.488,4.91-1.507c12.8-8.647,20.441-23.02,20.441-38.45&#10;&#9;c0-8.266-2.208-16.373-6.376-23.466c8.265-6.078,15.135-13.94,20.044-23.021l30.763,68.989l-34.416,53.775&#10;&#9;c-2.616,4.087-1.423,9.521,2.664,12.137c1.467,0.938,3.107,1.387,4.728,1.387c2.896,0,5.732-1.432,7.409-4.051l36.73-57.389&#10;&#9;c1.46-2.281,1.787-5.107,0.884-7.66l-40.875-92.419c0.275-2.475,0.43-4.986,0.438-7.533c0.018-5.297-0.541-10.409-1.617-15.31&#10;&#9;L433.958,358l38.97,71.322c1.596,2.922,4.609,4.576,7.718,4.575c1.423,0,2.868-0.347,4.204-1.077&#10;&#9;c4.258-2.327,5.825-7.665,3.497-11.923l-40.555-74.223c-1.022-1.871-2.689-3.306-4.691-4.038l-115.114-42.133l115.365-24.058&#10;&#9;l52.881,69.07c1.73,2.26,4.342,3.445,6.982,3.444c1.863,0,3.742-0.59,5.335-1.81C512.408,344.195,513.14,338.68,510.19,334.827z" transform="matrix(1, 0, 0, 1, 0, 0)" style="fill: rgb(59, 58, 60);"/>
  <g transform="matrix(1, 0, 0, 1, 0, 0)">
    <path d="M 269.884 400.745 C 235.682 393.292 214.993 367.998 214.621 332.475 C 214.508 321.724 217.176 311.574 221.576 302.509 C 232.491 305.36 243.943 306.882 255.752 306.882 C 267.487 306.882 278.87 305.38 289.724 302.564 C 287.203 302.705 284.665 302.782 282.11 302.782 C 207.626 302.782 147.245 242.401 147.245 167.917 C 147.245 105.168 190.099 52.432 248.136 37.372 C 177.195 41.322 120.886 100.093 120.886 172.02 C 120.886 229.765 154.807 273.087 198.085 294.069 C 190.714 305.06 186.356 318.251 186.307 332.478 C 186.182 370.86 217.193 402.075 255.573 402.204 C 260.478 402.22 265.262 401.698 269.884 400.744 L 269.884 400.745 Z" style="fill:#787780;"/>
  </g>
  <path d="M 317.02 137.281 C 317.02 136.026 317.333 134.457 317.333 133.202 C 317.333 110.928 299.137 93.045 276.549 93.045 C 263.372 92.731 251.136 99.006 243.607 109.359 C 238.901 106.222 233.254 104.653 227.293 104.653 C 210.352 104.653 196.548 118.457 196.548 135.085 L 196.548 137.595 C 185.253 143.556 178.979 153.281 178.979 165.203 C 178.979 184.027 194.351 198.772 214.116 198.772 L 300.706 198.772 C 320.471 198.772 335.843 184.027 335.843 165.203 C 335.843 152.654 328.941 142.614 317.02 137.281 Z" style="fill: rgb(120, 119, 128);"/>
  <path opacity="0.2" d="M 200.94 180.576 C 200.94 167.713 207.528 157.673 219.764 151.399 L 219.764 148.889 C 219.764 131.006 234.509 116.575 252.391 116.575 C 258.666 116.575 264.627 118.143 269.647 121.281 C 277.49 110.3 290.666 103.398 304.784 103.398 C 304.784 103.398 304.784 103.398 304.784 103.398 C 297.255 96.81 287.529 92.731 276.549 92.731 C 263.372 92.731 251.136 99.006 243.607 109.359 C 238.901 106.222 233.254 104.653 227.293 104.653 C 210.352 104.653 196.548 118.457 196.548 135.085 L 196.548 137.595 C 185.253 143.556 178.979 153.281 178.979 165.203 C 178.979 181.203 189.959 194.38 205.332 197.831 C 202.508 192.811 200.94 186.85 200.94 180.576 Z" style="fill: rgb(59, 58, 60);"/>
  <path d="M 286.588 189.988 C 283.451 202.223 272.784 210.694 260.235 210.694 C 258.039 210.694 255.842 210.38 253.646 209.752 C 250.509 208.811 247.372 207.556 244.862 205.674 C 242.038 203.792 239.842 201.282 237.96 198.772 C 233.881 192.497 231.999 184.968 233.881 177.125 C 237.019 164.889 247.685 156.418 260.235 156.418 C 262.431 156.418 264.627 156.732 266.823 157.36 C 273.725 159.242 279.686 163.321 283.451 169.595 C 287.215 175.556 288.47 183.085 286.588 189.988" style="fill-opacity: 0.16;"/>
  <path opacity="0.1" d="M 286.588 189.988 C 283.451 202.223 272.784 210.694 260.235 210.694 C 258.039 210.694 255.842 210.38 253.646 209.752 C 250.509 208.811 247.372 207.556 244.862 205.674 C 242.038 203.792 239.842 201.282 237.96 198.772 C 233.881 192.497 231.999 184.968 233.881 177.125 C 237.019 164.889 247.685 156.418 260.235 156.418 C 262.431 156.418 264.627 156.732 266.823 157.36 C 273.725 159.242 279.686 163.321 283.451 169.595 C 287.215 175.556 288.47 183.085 286.588 189.988" style="fill: rgb(255, 255, 255); fill-opacity: 0;"/>
  <path opacity="0.3" d="M 274.98 160.811 C 272.47 159.242 269.647 157.987 266.823 157.36 C 264.627 156.732 262.431 156.418 260.235 156.418 C 247.685 156.418 237.019 164.889 233.881 177.125 C 231.999 184.968 233.568 192.811 237.96 198.772 C 238.587 199.713 239.528 200.968 240.47 201.909 C 246.117 184.027 258.666 169.281 274.98 160.811" style="fill: rgb(59, 58, 60);"/>
  <path d="M 293.49 163.634 C 288.157 154.85 279.686 148.575 269.647 146.065 C 266.509 145.438 263.372 144.81 260.235 144.81 C 242.352 144.81 226.979 157.046 222.587 174.301 C 220.077 184.027 221.646 194.066 226.666 202.85 L 197.175 232.655 C 193.41 236.419 193.41 243.008 197.175 246.773 C 199.371 248.655 201.881 249.596 204.391 249.596 C 206.901 249.596 209.41 248.655 211.607 246.773 L 241.097 216.968 C 244.234 218.851 247.685 220.106 251.136 221.047 C 254.274 221.674 257.411 222.302 260.548 222.302 C 278.431 222.302 293.804 210.066 298.196 192.811 C 300.392 182.772 298.823 172.419 293.49 163.634 Z M 286.588 189.988 C 283.451 202.223 272.784 210.694 260.235 210.694 C 258.039 210.694 255.842 210.38 253.646 209.752 C 250.509 208.811 247.372 207.556 244.862 205.674 C 242.038 203.792 239.842 201.282 237.96 198.772 C 233.881 192.497 231.999 184.968 233.881 177.125 C 237.019 164.889 247.685 156.418 260.235 156.418 C 262.431 156.418 264.627 156.732 266.823 157.36 C 273.725 159.242 279.686 163.321 283.451 169.595 C 287.215 175.87 288.47 183.085 286.588 189.988 Z" style="fill: rgb(59, 58, 60);"/>
  <path opacity="0.5" fill="#1E1E1E" d="M 238.274 215.4 C 234.195 212.576 231.058 209.439 228.234 205.36 C 227.607 204.419 227.293 203.792 226.666 202.85 L 224.156 205.674 L 223.842 205.988 C 224.156 206.615 224.469 207.243 225.097 207.87 C 228.234 212.262 231.685 216.027 236.077 219.164 C 236.391 219.478 237.332 219.792 238.274 220.106 L 241.097 217.282 C 239.842 216.341 239.215 216.027 238.274 215.4 Z"/>
</svg>
